<?xml version="1.0" standalone="no"?>
<!DOCTYPE svg PUBLIC "-//W3C//DTD SVG 20010904//EN"
 "http://www.w3.org/TR/2001/REC-SVG-20010904/DTD/svg10.dtd">
<svg version="1.0" xmlns="http://www.w3.org/2000/svg"
 width="500.000000pt" height="500.000000pt" viewBox="0 0 500.000000 500.000000"
 preserveAspectRatio="xMidYMid meet">
<metadata>
Created by potrace 1.11, written by Peter Selinger 2001-2013
</metadata>
<g transform="translate(0.000000,500.000000) scale(0.100000,-0.100000)"
fill="#000000" stroke="none">
<path d="M2295 4993 c-1078 -94 -1975 -863 -2225 -1908 -52 -216 -64 -329 -65
-575 0 -237 9 -330 52 -535 153 -735 658 -1382 1337 -1714 243 -119 503 -199
771 -238 158 -22 505 -23 660 0 420 60 791 206 1121 442 569 406 930 1006
1031 1710 23 155 22 502 0 660 -119 835 -632 1544 -1382 1911 -347 169 -732
256 -1115 252 -80 -1 -163 -3 -185 -5z m1374 -577 c79 -44 174 -312 217 -611
25 -174 23 -472 -4 -625 -60 -331 -196 -574 -407 -725 l-60 -43 7 -134 c9
-150 30 -305 58 -423 21 -91 78 -252 91 -260 4 -3 134 152 289 345 154 192
283 350 286 350 9 0 134 -104 134 -112 0 -4 -130 -171 -289 -370 l-289 -363
26 -12 c36 -16 118 -15 165 1 126 45 317 223 477 444 52 72 98 131 101 131 3
1 38 -22 78 -49 l72 -51 -17 -27 c-91 -155 -324 -452 -464 -592 -287 -287
-515 -378 -701 -279 -33 18 -61 30 -63 28 -1 -2 -83 -104 -180 -226 -98 -123
-179 -223 -181 -223 -12 0 -130 105 -130 115 0 8 84 119 187 249 l187 234 -38
76 c-91 181 -162 490 -201 875 -5 58 -11 106 -13 107 -1 1 -103 -28 -226 -65
l-225 -68 -22 -84 c-109 -412 -383 -704 -896 -958 -254 -125 -404 -166 -581
-159 -96 3 -110 6 -180 41 -77 38 -158 113 -179 167 -6 14 -11 59 -11 100 -1
291 245 609 687 887 126 79 454 245 601 303 61 23 113 46 116 49 4 3 2 42 -2
86 -15 135 -11 555 6 720 20 192 58 407 101 564 19 67 34 125 34 127 0 3 -24
-9 -52 -26 -183 -107 -411 -205 -582 -250 -142 -37 -229 -48 -451 -55 -322
-11 -418 -33 -510 -117 -103 -94 -153 -239 -105 -301 75 -95 381 -140 810
-117 124 6 235 14 248 17 12 3 22 2 22 -2 0 -4 -26 -50 -57 -101 -66 -107 -38
-94 -299 -140 -597 -104 -958 -57 -1015 135 -35 118 82 403 254 616 165 204
434 417 600 474 78 27 257 56 537 86 472 52 652 88 823 167 49 22 91 38 93 35
3 -3 0 -63 -6 -133 -18 -203 -24 -879 -11 -1124 11 -204 24 -364 36 -456 l6
-42 77 24 c42 13 145 43 228 65 l151 41 7 87 c3 47 15 158 27 246 99 781 280
1262 499 1330 57 17 79 18 109 1z"/>
<path d="M3526 3883 c-26 -80 -56 -238 -81 -438 -27 -212 -51 -512 -42 -521
12 -12 99 48 158 108 109 110 178 294 166 442 -14 177 -122 456 -177 456 -4 0
-15 -21 -24 -47z"/>
<path d="M1895 1821 c-238 -122 -345 -183 -493 -284 -189 -128 -327 -280 -292
-322 47 -56 476 43 679 157 126 71 202 145 246 240 33 71 79 262 73 299 -3 15
-36 1 -213 -90z"/>
</g>
</svg>
